<?xml version="1.0" standalone="no"?>
<!DOCTYPE svg PUBLIC "-//W3C//DTD SVG 20010904//EN"
 "http://www.w3.org/TR/2001/REC-SVG-20010904/DTD/svg10.dtd">
<svg version="1.0" xmlns="http://www.w3.org/2000/svg"
 width="528.000000pt" height="473.000000pt" viewBox="0 0 528.000000 473.000000"
 preserveAspectRatio="xMidYMid meet">
<metadata>
Created by potrace 1.15, written by Peter Selinger 2001-2017
</metadata>
<g transform="translate(50.00000,430.000000) scale(0.080000,-0.080000)"
fill="#009090" stroke="none">
<path d="M2607 4444 c-4 -4 -7 -202 -7 -440 0 -375 2 -433 15 -438 8 -3 22 -3
30 0 13 5 15 61 13 443 -3 430 -3 436 -23 439 -12 2 -24 0 -28 -4z"/>
<path d="M1147 3913 c-4 -3 -7 -13 -7 -22 0 -17 537 -662 556 -668 7 -2 19 4
28 13 16 15 16 18 0 43 -10 14 -134 164 -276 334 -242 287 -278 323 -301 300z"/>
<path d="M3941 3766 c-333 -396 -389 -463 -405 -487 -16 -25 -16 -28 0 -43 9
-9 21 -15 28 -13 6 2 134 149 284 328 274 326 297 360 246 367 -17 2 -50 -30
-153 -152z"/>
<path d="M2485 3299 c-333 -49 -630 -271 -775 -582 -69 -148 -85 -227 -85
-427 0 -243 22 -318 170 -589 85 -155 119 -250 140 -386 7 -50 19 -102 25
-117 10 -20 10 -34 1 -59 -15 -42 -13 -136 3 -174 10 -24 10 -36 0 -65 -18
-49 -17 -143 1 -187 23 -55 62 -102 112 -133 33 -21 52 -43 73 -87 35 -73 98
-134 175 -170 l60 -28 245 0 245 0 67 33 c79 39 150 112 175 181 13 39 25 52
65 74 102 57 153 198 113 311 -11 32 -11 44 1 78 17 48 18 108 3 161 -7 27 -7
48 1 71 6 18 17 75 25 127 18 124 53 218 131 360 140 254 172 354 181 564 4
109 2 147 -17 235 -110 531 -607 886 -1135 809z m323 -195 c456 -96 740 -566
622 -1029 -20 -78 -46 -136 -152 -335 -79 -148 -113 -245 -133 -377 -12 -83
-18 -101 -40 -120 l-26 -23 -453 0 c-440 0 -453 1 -474 20 -24 22 -23 21 -47
158 -21 125 -61 231 -144 381 -137 246 -155 307 -155 511 -1 121 3 158 22 223
124 433 539 683 980 591z m283 -1977 c46 -35 47 -101 2 -137 -25 -19 -40 -20
-465 -20 l-440 0 -29 29 c-37 38 -39 82 -4 116 l24 25 448 0 c336 -1 452 -4
464 -13z m9 -257 c27 -27 34 -64 18 -96 -25 -54 -27 -54 -501 -52 l-439 3 -24
28 c-31 37 -31 81 1 112 l24 25 451 0 c435 0 451 -1 470 -20z m-143 -257 c-8
-45 -32 -80 -77 -110 -32 -22 -41 -23 -247 -23 -178 0 -221 3 -249 16 -44 21
-75 64 -81 114 l-6 40 333 0 333 0 -6 -37z"/>
<path d="M2892 2683 c-10 -16 -88 -149 -172 -298 -83 -148 -158 -280 -165
-291 -12 -19 -3 -40 101 -230 63 -114 120 -211 127 -216 18 -12 185 -10 192 3
4 5 -28 74 -71 152 -43 78 -94 171 -112 207 l-34 65 171 300 c94 165 171 308
171 318 0 15 -11 17 -94 17 -92 0 -95 -1 -114 -27z"/>
<path d="M2254 2505 c-3 -8 17 -54 45 -102 28 -49 51 -94 51 -100 0 -6 -36
-74 -81 -152 -45 -79 -78 -148 -75 -156 9 -24 178 -21 198 3 8 9 52 82 97 161
l82 144 -52 91 c-75 132 -67 126 -171 126 -68 0 -90 -3 -94 -15z"/>
<path d="M369 2564 c-32 -39 -9 -46 412 -121 222 -40 415 -72 429 -70 19 1 25
8 25 26 0 13 -7 28 -15 32 -12 7 -807 149 -831 149 -4 0 -12 -7 -20 -16z"/>
<path d="M4445 2507 c-220 -40 -406 -76 -412 -80 -18 -11 -16 -46 2 -54 24 -9
838 137 855 153 18 18 3 48 -26 51 -10 1 -199 -31 -419 -70z"/>
<path d="M1006 1253 c-198 -115 -364 -216 -370 -226 -9 -14 -7 -21 8 -32 23
-18 11 -24 436 222 288 167 325 191 325 213 0 17 -6 26 -20 28 -11 1 -174 -87
-379 -205z"/>
<path d="M3854 1445 c-4 -8 -4 -21 -1 -28 4 -10 615 -370 723 -425 30 -16 64
9 48 35 -13 22 -722 433 -747 433 -10 0 -20 -7 -23 -15z"/>
</g>
</svg>
